<svg width="19" height="19" viewBox="0 0 19 19" fill="none" xmlns="http://www.w3.org/2000/svg">
<g clip-path="url(#clip0_85_1047)">
<path d="M17.9328 3.4199C16.813 2.95019 15.6922 2.77148 14.5721 2.77148C11.0162 2.7712 7.46057 4.57124 3.90466 4.57124C3.01287 4.57124 2.12165 4.45807 1.22986 4.17514C1.12968 4.14338 1.02921 4.12837 0.931055 4.12837C0.434204 4.12837 0 4.51292 0 5.04672V14.206C0 14.5706 0.20873 14.9162 0.543909 15.0565C1.66377 15.5265 2.7845 15.7052 3.90466 15.7052C7.46057 15.7052 11.0165 13.9052 14.5724 13.9052C15.4642 13.9052 16.3554 14.0183 17.2472 14.3013C17.3474 14.333 17.4478 14.348 17.546 14.348C18.0428 14.348 18.477 13.9635 18.477 13.4297V4.2707C18.4768 3.90578 18.268 3.5605 17.9328 3.4199ZM1.38576 5.66483C1.96662 5.81033 2.57289 5.88337 3.19648 5.92264C3.02672 6.77112 2.28072 7.41059 1.38576 7.41059V5.66483ZM1.38576 13.8928V12.5134C2.37802 12.5134 3.18089 13.3006 3.22506 14.286C2.57462 14.2337 1.96662 14.1038 1.38576 13.8928ZM9.23838 12.0099C7.96261 12.0099 6.92878 10.7687 6.92878 9.23835C6.92878 7.70766 7.9629 6.46683 9.23838 6.46683C10.5138 6.46683 11.548 7.70766 11.548 9.23835C11.548 10.7693 10.5136 12.0099 9.23838 12.0099ZM17.091 12.8119C16.5852 12.6851 16.0601 12.6141 15.5228 12.5682C15.6922 11.8153 16.3167 11.2437 17.091 11.1455V12.8119ZM17.091 5.99539C16.1992 5.88251 15.5072 5.13795 15.4798 4.21845C16.0439 4.28109 16.5794 4.3983 17.091 4.58394V5.99539Z" fill="#FF6471"/>
</g>
<defs>
<clipPath id="clip0_85_1047">
<rect width="18.4768" height="18.4768" fill="white"/>
</clipPath>
</defs>
</svg>
