<svg width="52" height="52" viewBox="0 0 52 52" fill="none" xmlns="http://www.w3.org/2000/svg">
<circle cx="25.7037" cy="25.7037" r="25.7037" fill="#F2F3F7"/>
<path d="M25.8675 0C30.5226 5.51608e-08 35.0915 1.24827 39.0923 3.61317C43.093 5.97807 46.3774 9.37194 48.5991 13.4369C50.8207 17.5018 51.8972 22.0871 51.7151 26.7093C51.533 31.3314 50.099 35.8191 47.5643 39.699C45.0297 43.5789 41.4883 46.7072 37.3137 48.7541C33.1391 50.8009 28.486 51.6904 23.8451 51.3288C19.2042 50.9672 14.7475 49.3678 10.945 46.6993C7.14258 44.0308 4.13527 40.3922 2.24027 36.1671L25.8675 25.7037V0Z" fill="#FF6471"/>
<circle cx="25.8676" cy="25.8676" r="15.5205" fill="white"/>
</svg>
