<svg width="63" height="76" viewBox="0 0 63 76" fill="none" xmlns="http://www.w3.org/2000/svg">
<path d="M1.04297 0C9.6866 1.92588e-05 16.6932 6.89011 16.6934 15.3896C16.6933 20.9367 13.7095 25.7986 9.2334 28.5068C8.3981 29.0122 7.82523 29.886 7.8252 30.8623V31.0322C7.8252 32.3335 8.8804 33.3887 10.1816 33.3887C10.8065 33.3886 11.4058 33.1401 11.8477 32.6982L42.1748 2.37109C44.9252 -0.378999 49.3843 -0.379016 52.1348 2.37109C54.8855 5.12156 54.8854 9.58146 52.1348 12.332L34.3555 30.1104C30.2692 28.2421 25.2807 28.9889 21.917 32.3525C18.5534 35.7161 17.8058 40.7048 19.6738 44.791L18.7207 45.7451C16.0872 48.3785 14.6075 51.9505 14.6074 55.6748V61.6045C14.6072 69.3596 8.32061 75.6464 0.56543 75.6465C0.253152 75.6465 9.22212e-09 75.3933 0 75.0811V1.07812C0 0.491107 0.455951 9.29366e-06 1.04297 0ZM34.3555 30.1104C35.5235 30.6444 36.6186 31.3911 37.5801 32.3525L37.7734 32.5459C42.0984 36.8711 42.0985 43.8838 37.7734 48.209C33.4483 52.5341 26.4356 52.534 22.1104 48.209L21.917 48.0156C20.9554 47.054 20.2079 45.9592 19.6738 44.791L34.3555 30.1104Z" fill="#2F80ED"/>
<rect width="22.4242" height="22.1507" rx="11.0754" transform="matrix(0.707107 0.707107 0.707107 -0.707107 31.3018 60.0078)" fill="#FF6471"/>
</svg>
