<svg width="63" height="76" viewBox="0 0 63 76" fill="none" xmlns="http://www.w3.org/2000/svg">
<path d="M1.04395 0C9.68742 0.000195623 16.6952 6.89022 16.6953 15.3896C16.6953 20.9369 13.7098 25.7986 9.2334 28.5068C8.39814 29.0122 7.82622 29.8861 7.82617 30.8623V31.0322C7.82617 32.3334 8.88052 33.3885 10.1816 33.3887C10.8065 33.3887 11.4058 33.1401 11.8477 32.6982L42.1758 2.37109C44.9261 -0.379046 49.3854 -0.379007 52.1357 2.37109C54.8861 5.12142 54.886 9.58066 52.1357 12.3311L34.3555 30.1104C30.2692 28.2423 25.2806 28.9889 21.917 32.3525C18.5534 35.7162 17.8067 40.7048 19.6748 44.791L18.7207 45.7461C16.0873 48.3795 14.6084 51.9515 14.6084 55.6758V61.6045C14.6082 69.3597 8.32065 75.6465 0.56543 75.6465C0.253152 75.6465 9.22212e-09 75.3933 0 75.0811V1.0791C0 0.491528 0.456371 1.13698e-05 1.04395 0ZM34.3555 30.1104C35.5236 30.6444 36.6185 31.391 37.5801 32.3525L37.7734 32.5459C42.0986 36.8711 42.0986 43.8838 37.7734 48.209C33.4482 52.5341 26.4355 52.5341 22.1104 48.209L21.917 48.0156C20.9555 47.0541 20.2088 45.9591 19.6748 44.791L34.3555 30.1104Z" fill="#FFCBD0"/>
<rect width="22.4242" height="22.1507" rx="11.0754" transform="matrix(0.707107 0.707107 0.707107 -0.707107 31.3022 60.0078)" fill="#90B9FF" fill-opacity="0.8"/>
</svg>
