<svg width="76" height="76" viewBox="0 0 76 76" fill="none" xmlns="http://www.w3.org/2000/svg">
<g filter="url(#filter0_d_97_7682)">
<circle cx="37.7556" cy="34.9504" r="30.5554" fill="white" fill-opacity="0.08"/>
<path d="M49.6436 63.3595C55.2269 61.0321 59.999 57.0908 63.3564 52.034C65.9189 48.756 70.2752 39.0002 67.2002 26.2002L37.9506 34.9502L37.9506 4.20019C31.9073 4.20019 25.9997 6.00365 20.9749 9.3825C15.9501 12.7614 12.0338 17.5638 9.72111 23.1827C7.40845 28.8015 6.80335 34.9843 7.98233 40.9492C9.16132 46.9141 12.0714 52.3933 16.3447 56.6937C20.6179 60.9942 26.0623 63.9228 31.9895 65.1093C37.9167 66.2958 44.0603 65.6869 49.6436 63.3595Z" fill="white"/>
</g>
<defs>
<filter id="filter0_d_97_7682" x="0.000195026" y="0.000195026" width="75.5104" height="75.9" filterUnits="userSpaceOnUse" color-interpolation-filters="sRGB">
<feFlood flood-opacity="0" result="BackgroundImageFix"/>
<feColorMatrix in="SourceAlpha" type="matrix" values="0 0 0 0 0 0 0 0 0 0 0 0 0 0 0 0 0 0 127 0" result="hardAlpha"/>
<feOffset dy="3"/>
<feGaussianBlur stdDeviation="3.6"/>
<feComposite in2="hardAlpha" operator="out"/>
<feColorMatrix type="matrix" values="0 0 0 0 0 0 0 0 0 0 0 0 0 0 0 0 0 0 0.25 0"/>
<feBlend mode="normal" in2="BackgroundImageFix" result="effect1_dropShadow_97_7682"/>
<feBlend mode="normal" in="SourceGraphic" in2="effect1_dropShadow_97_7682" result="shape"/>
</filter>
</defs>
</svg>
